# xmcd
#
# Track frame offsets:
#	150
#	15493
#	34453
#	49626
#	62577
#	79199
#	93701
#	111483
#	125817
#	139902
#	150843
#
# Disc length: 2170 seconds
#
# Revision: 1
# Processed by: cddbd v1.4PL0 Copyright (c) Steve Scherf et al.
# Submitted via: MusicWizard 6.0.1
#
DISCID=9308780b
DTITLE=Paralamas Do Sucesso - Longo Caminho
DYEAR=1900
DGENRE=
TTITLE0=O Calibre
TTITLE1=Seguindo Estrelas
TTITLE2=Longo Caminho
TTITLE3=Soldado Da Paz
TTITLE4=Cuide Bem Do Seu Amor
TTITLE5=Amor Em Vão
TTITLE6=Flores No Deserto
TTITLE7=Running On The Spot
TTITLE8=Flores E Espinhos
TTITLE9=La Estacion
TTITLE10=Hinchley Pond
EXTD=By DJ MP2
EXTT0=
EXTT1=
EXTT2=
EXTT3=
EXTT4=
EXTT5=
EXTT6=
EXTT7=
EXTT8=
EXTT9=
EXTT10=
PLAYORDER=
